<?xml version="1.0" encoding="UTF-8" standalone="no"?>
<!-- Created with Inkscape (http://www.inkscape.org/) -->

<svg
   xmlns:dc="http://purl.org/dc/elements/1.1/"
   xmlns:cc="http://creativecommons.org/ns#"
   xmlns:rdf="http://www.w3.org/1999/02/22-rdf-syntax-ns#"
   xmlns:svg="http://www.w3.org/2000/svg"
   xmlns="http://www.w3.org/2000/svg"
   xmlns:sodipodi="http://sodipodi.sourceforge.net/DTD/sodipodi-0.dtd"
   xmlns:inkscape="http://www.inkscape.org/namespaces/inkscape"
   width="48"
   height="48"
   viewBox="0 0 12.7 12.7"
   version="1.1"
   id="svg8"
   inkscape:version="0.92.1 unknown"
   sodipodi:docname="utilities-system-monitor.svg">
  <defs
     id="defs2">
    <clipPath
       clipPathUnits="userSpaceOnUse"
       id="clipPath5343">
      <path
         style="fill:#7aafff;fill-opacity:1;stroke:none;stroke-width:2.01045942;stroke-linecap:round;stroke-linejoin:round;stroke-miterlimit:4;stroke-dasharray:none;stroke-opacity:1"
         d="m 3.0688351,285.55677 c -1.613568,1.19596 -2.5662181,3.08478 -2.56883509,5.09323 0,3.50701 2.84299219,6.35 6.35000009,6.35 C 10.357008,297 13.2,294.15701 13.2,290.65 c -0.0022,-0.84296 -0.452078,-2.71271 -0.500228,-2.45359 -0.02424,0.84121 -0.571809,2.35322 -0.602031,2.23138 -0.0026,-0.50621 -0.2876,-1.42626 -0.305098,-1.19509 0.02804,1.40695 -1.48374,3.17677 -2.3076623,3.50038 -0.8310457,0.36942 -1.7371637,0.56412 -2.6117267,0.56534 -0.1736918,2e-5 -1.1686519,-0.13807 -1.6443439,-0.70435 -0.826376,-0.89253 -0.00201,-1.09994 0.4625039,-1.27331 0.5055862,-0.18871 1.030887,-0.30969 1.5203212,-0.42013 0.7456988,-0.16826 0.4710618,-0.52626 0.1049028,-0.6289 -0.9266939,-0.25976 -2.044886,0.33543 -2.8654579,0.30593 -0.848406,-0.0291 -0.804618,-1.69621 -0.1405601,-1.76217 0.7394212,-0.0734 1.6665151,-0.51079 1.461779,-0.65673 -0.8303549,-0.61672 -0.9617369,-0.79081 -1.0595549,-1.16418 -0.1480201,-0.565 0.341282,-1.03557 0.05777,-0.96356 -0.2596169,0.08 -0.4110678,0.15641 -0.5988619,0.25715 -0.1672929,0.0897 -0.293814,0.0546 -0.6751841,0.002 -0.3249449,-0.045 -0.3870058,-0.0557 -0.3755009,-0.25673 0.0115,-0.20097 0.07295,-0.52125 -0.05223,-0.47648 z"
         id="path5345"
         inkscape:connector-curvature="0"
         sodipodi:nodetypes="ccscccccccssscscscssscc" />
    </clipPath>
    <clipPath
       clipPathUnits="userSpaceOnUse"
       id="clipPath4543">
      <path
         style="opacity:1;vector-effect:none;fill:#666666;fill-opacity:1;stroke:none;stroke-width:2.11666656;stroke-linecap:round;stroke-linejoin:round;stroke-miterlimit:4;stroke-dasharray:none;stroke-dashoffset:0;stroke-opacity:1"
         d="m 1.7760088,291.5696 c -1.82613339,0.17434 -3.2940315,0.91934 -3.4903996,2.16451 -0.2629054,1.66729 1.5678591,3.34127 4.0891213,3.73893 1.2172084,0.19119 2.434234,0.053 3.3807423,-0.38387 0.7310194,0.5283 1.669357,0.90078 2.6704721,1.06008 2.5212691,0.39771 4.7783381,-0.6315 5.0412801,-2.2988 0.262905,-1.6673 -1.490667,-1.94329 -4.257163,-2.17938 -2.7664958,-0.23609 -3.6163896,-1.68839 -5.7470448,-2.04575 -0.5660191,-0.0893 -1.1380808,-0.10817 -1.6870084,-0.0557 z"
         id="path4545"
         inkscape:connector-curvature="0"
         sodipodi:nodetypes="cccccczcc" />
    </clipPath>
  </defs>
  <sodipodi:namedview
     id="base"
     pagecolor="#ffffff"
     bordercolor="#666666"
     borderopacity="1.0"
     inkscape:pageopacity="0.0"
     inkscape:pageshadow="2"
     inkscape:zoom="5.0197216"
     inkscape:cx="-75.735618"
     inkscape:cy="-57.690379"
     inkscape:document-units="mm"
     inkscape:current-layer="layer1"
     showgrid="false"
     units="px"
     inkscape:window-width="2450"
     inkscape:window-height="1564"
     inkscape:window-x="110"
     inkscape:window-y="36"
     inkscape:window-maximized="1" />
  <metadata
     id="metadata5">
    <rdf:RDF>
      <cc:Work
         rdf:about="">
        <dc:format>image/svg+xml</dc:format>
        <dc:type
           rdf:resource="http://purl.org/dc/dcmitype/StillImage" />
        <dc:title></dc:title>
      </cc:Work>
    </rdf:RDF>
  </metadata>
  <g
     inkscape:label="圖層 1"
     inkscape:groupmode="layer"
     id="layer1"
     transform="translate(0,-284.3)">
    <circle
       style="fill:#999999;fill-opacity:1;stroke:none;stroke-width:1.74658811;stroke-linecap:round;stroke-linejoin:round;stroke-miterlimit:4;stroke-dasharray:none;stroke-opacity:1"
       id="path4514"
       cx="6.3499999"
       cy="290.64999"
       r="6.3499999" />
    <path
       style="color:#000000;font-style:normal;font-variant:normal;font-weight:normal;font-stretch:normal;font-size:medium;line-height:normal;font-family:sans-serif;font-variant-ligatures:normal;font-variant-position:normal;font-variant-caps:normal;font-variant-numeric:normal;font-variant-alternates:normal;font-feature-settings:normal;text-indent:0;text-align:start;text-decoration:none;text-decoration-line:none;text-decoration-style:solid;text-decoration-color:#000000;letter-spacing:normal;word-spacing:normal;text-transform:none;writing-mode:lr-tb;direction:ltr;text-orientation:mixed;dominant-baseline:auto;baseline-shift:baseline;text-anchor:start;white-space:normal;shape-padding:0;clip-rule:nonzero;display:inline;overflow:visible;visibility:visible;opacity:1;isolation:auto;mix-blend-mode:normal;color-interpolation:sRGB;color-interpolation-filters:linearRGB;solid-color:#000000;solid-opacity:1;vector-effect:none;fill:#666666;fill-opacity:1;fill-rule:evenodd;stroke:none;stroke-width:0.55000001;stroke-linecap:round;stroke-linejoin:round;stroke-miterlimit:4;stroke-dasharray:none;stroke-dashoffset:0;stroke-opacity:1;color-rendering:auto;image-rendering:auto;shape-rendering:auto;text-rendering:auto;enable-background:accumulate"
       d="m 5.6499814,287.68396 a 0.27502752,0.27502752 0 0 0 -0.271302,0.23151 l -0.83044,2.76262 h -1.845365 a 0.27543535,0.27543535 0 1 0 0,0.55087 h 2.050521 a 0.27502752,0.27502752 0 0 0 0.26355,-0.1974 l 0.634586,-2.11098 0.635103,2.11098 0.89762,2.9869 10e-4,0.003 a 0.2752811,0.2752811 0 0 0 0.0052,0.0155 0.2752811,0.2752811 0 0 0 0.0057,0.015 0.2752811,0.2752811 0 0 0 0.0124,0.0248 0.2752811,0.2752811 0 0 0 0.01189,0.0191 0.2752811,0.2752811 0 0 0 0.0098,0.014 0.2752811,0.2752811 0 0 0 0.0083,0.0103 0.2752811,0.2752811 0 0 0 0.0098,0.0109 0.2752811,0.2752811 0 0 0 0.0078,0.008 0.2752811,0.2752811 0 0 0 0.0098,0.009 0.2752811,0.2752811 0 0 0 0.01344,0.0114 0.2752811,0.2752811 0 0 0 0.02119,0.015 0.2752811,0.2752811 0 0 0 0.0088,0.005 0.2752811,0.2752811 0 0 0 0.01447,0.008 0.2752811,0.2752811 0 0 0 0.0124,0.006 0.2752811,0.2752811 0 0 0 0.01344,0.006 0.2752811,0.2752811 0 0 0 0.0016,5.3e-4 0.2752811,0.2752811 0 0 0 0.0217,0.007 0.2752811,0.2752811 0 0 0 0.02687,0.006 0.2752811,0.2752811 0 0 0 0.02687,0.004 0.2752811,0.2752811 0 0 0 5.29e-4,0 0.2752811,0.2752811 0 0 0 0.02274,10e-4 0.2752811,0.2752811 0 0 0 0.0057,0 0.2752811,0.2752811 0 0 0 0.02222,-0.002 0.2752811,0.2752811 0 0 0 0.0041,-5.3e-4 0.2752811,0.2752811 0 0 0 0.0047,-5.3e-4 0.2752811,0.2752811 0 0 0 0.02222,-0.004 0.2752811,0.2752811 0 0 0 0.0046,-0.001 0.2752811,0.2752811 0 0 0 0.02222,-0.006 0.2752811,0.2752811 0 0 0 0.0041,-0.002 0.2752811,0.2752811 0 0 0 0.02119,-0.008 0.2752811,0.2752811 0 0 0 0.0047,-0.002 0.2752811,0.2752811 0 0 0 0.02015,-0.0109 0.2752811,0.2752811 0 0 0 0.0124,-0.008 0.2752811,0.2752811 0 0 0 0.01447,-0.01 0.2752811,0.2752811 0 0 0 0.01757,-0.014 0.2752811,0.2752811 0 0 0 0.0036,-0.003 0.2752811,0.2752811 0 0 0 0.01654,-0.0165 0.2752811,0.2752811 0 0 0 0.0031,-0.003 0.2752811,0.2752811 0 0 0 0.0057,-0.007 0.2752811,0.2752811 0 0 0 0.01137,-0.0145 0.2752811,0.2752811 0 0 0 0.01292,-0.0186 0.2752811,0.2752811 0 0 0 0.0026,-0.004 0.2752811,0.2752811 0 0 0 0.01033,-0.0202 0.2752811,0.2752811 0 0 0 0.0021,-0.004 0.2752811,0.2752811 0 0 0 0.0088,-0.0212 0.2752811,0.2752811 0 0 0 0.0016,-0.005 0.2752811,0.2752811 0 0 0 0.0036,-0.0109 0.2752811,0.2752811 0 0 0 0.0031,-0.0109 l 0.836642,-2.78174 h 1.8458826 a 0.27543535,0.27543535 0 1 0 0,-0.55087 H 8.3472154 a 0.27502752,0.27502752 0 0 0 -0.26355,0.19534 l -0.634586,2.11305 -0.632003,-2.1022 a 0.27528247,0.27528247 0 0 0 -0.0031,-0.0109 l -0.890438,-2.9626 a 0.27502752,0.27502752 0 0 0 -0.117821,-0.17932 0.27502752,0.27502752 0 0 0 -0.0026,-0.002 0.27502752,0.27502752 0 0 0 -0.02067,-0.0124 0.27502752,0.27502752 0 0 0 -0.0031,-0.002 0.27502752,0.27502752 0 0 0 -0.0021,-10e-4 0.27502752,0.27502752 0 0 0 -0.127118,-0.031 z"
       id="path4559-2"
       inkscape:connector-curvature="0" />
    <path
       style="color:#000000;font-style:normal;font-variant:normal;font-weight:normal;font-stretch:normal;font-size:medium;line-height:normal;font-family:sans-serif;font-variant-ligatures:normal;font-variant-position:normal;font-variant-caps:normal;font-variant-numeric:normal;font-variant-alternates:normal;font-feature-settings:normal;text-indent:0;text-align:start;text-decoration:none;text-decoration-line:none;text-decoration-style:solid;text-decoration-color:#000000;letter-spacing:normal;word-spacing:normal;text-transform:none;writing-mode:lr-tb;direction:ltr;text-orientation:mixed;dominant-baseline:auto;baseline-shift:baseline;text-anchor:start;white-space:normal;shape-padding:0;clip-rule:nonzero;display:inline;overflow:visible;visibility:visible;opacity:1;isolation:auto;mix-blend-mode:normal;color-interpolation:sRGB;color-interpolation-filters:linearRGB;solid-color:#000000;solid-opacity:1;vector-effect:none;fill:#ffffff;fill-opacity:1;fill-rule:evenodd;stroke:none;stroke-width:0.55000001;stroke-linecap:round;stroke-linejoin:round;stroke-miterlimit:4;stroke-dasharray:none;stroke-dashoffset:0;stroke-opacity:1;color-rendering:auto;image-rendering:auto;shape-rendering:auto;text-rendering:auto;enable-background:accumulate"
       d="m 5.4495381,287.38367 a 0.27502752,0.27502752 0 0 0 -0.2713014,0.23151 l -0.83044,2.76262 H 2.5024312 a 0.27543535,0.27543535 0 1 0 0,0.55087 H 4.552952 a 0.27502752,0.27502752 0 0 0 0.2635498,-0.1974 l 0.6345865,-2.11098 0.6351034,2.11098 0.8976196,2.9869 0.00103,0.003 a 0.2752811,0.2752811 0 0 0 0.00517,0.0155 0.2752811,0.2752811 0 0 0 0.00568,0.015 0.2752811,0.2752811 0 0 0 0.012402,0.0248 0.2752811,0.2752811 0 0 0 0.011886,0.0191 0.2752811,0.2752811 0 0 0 0.00982,0.014 0.2752811,0.2752811 0 0 0 0.00827,0.0103 0.2752811,0.2752811 0 0 0 0.00982,0.0109 0.2752811,0.2752811 0 0 0 0.00775,0.008 0.2752811,0.2752811 0 0 0 0.00982,0.009 0.2752811,0.2752811 0 0 0 0.013436,0.0114 0.2752811,0.2752811 0 0 0 0.021187,0.015 0.2752811,0.2752811 0 0 0 0.00879,0.005 0.2752811,0.2752811 0 0 0 0.014469,0.008 0.2752811,0.2752811 0 0 0 0.012402,0.006 0.2752811,0.2752811 0 0 0 0.013436,0.006 0.2752811,0.2752811 0 0 0 0.00155,5.2e-4 0.2752811,0.2752811 0 0 0 0.021704,0.007 0.2752811,0.2752811 0 0 0 0.026872,0.006 0.2752811,0.2752811 0 0 0 0.026872,0.004 0.2752811,0.2752811 0 0 0 5.167e-4,0 0.2752811,0.2752811 0 0 0 0.022738,10e-4 0.2752811,0.2752811 0 0 0 0.00568,0 0.2752811,0.2752811 0 0 0 0.022221,-0.002 0.2752811,0.2752811 0 0 0 0.00413,-5.2e-4 0.2752811,0.2752811 0 0 0 0.00465,-5.2e-4 0.2752811,0.2752811 0 0 0 0.022221,-0.004 0.2752811,0.2752811 0 0 0 0.00465,-10e-4 0.2752811,0.2752811 0 0 0 0.022221,-0.006 0.2752811,0.2752811 0 0 0 0.00413,-0.002 0.2752811,0.2752811 0 0 0 0.021187,-0.008 0.2752811,0.2752811 0 0 0 0.00465,-0.002 0.2752811,0.2752811 0 0 0 0.020154,-0.0109 0.2752811,0.2752811 0 0 0 0.012402,-0.008 0.2752811,0.2752811 0 0 0 0.014469,-0.01 0.2752811,0.2752811 0 0 0 0.01757,-0.014 0.2752811,0.2752811 0 0 0 0.00362,-0.003 0.2752811,0.2752811 0 0 0 0.016536,-0.0165 0.2752811,0.2752811 0 0 0 0.0031,-0.003 0.2752811,0.2752811 0 0 0 0.00568,-0.007 0.2752811,0.2752811 0 0 0 0.011369,-0.0145 0.2752811,0.2752811 0 0 0 0.012919,-0.0186 0.2752811,0.2752811 0 0 0 0.00258,-0.004 0.2752811,0.2752811 0 0 0 0.010335,-0.0202 0.2752811,0.2752811 0 0 0 0.00207,-0.004 0.2752811,0.2752811 0 0 0 0.00878,-0.0212 0.2752811,0.2752811 0 0 0 0.00155,-0.005 0.2752811,0.2752811 0 0 0 0.00362,-0.0109 0.2752811,0.2752811 0 0 0 0.0031,-0.0109 l 0.8366413,-2.78174 H 10.19755 a 0.27543535,0.27543535 0 1 0 0,-0.55087 H 8.146531 a 0.27502752,0.27502752 0 0 0 -0.2635496,0.19534 l -0.6345867,2.11305 -0.6320028,-2.1022 a 0.27528247,0.27528247 0 0 0 -0.0031,-0.0109 l -0.8903851,-2.96261 a 0.27502752,0.27502752 0 0 0 -0.1178221,-0.17932 0.27502752,0.27502752 0 0 0 -0.00258,-0.002 0.27502752,0.27502752 0 0 0 -0.02067,-0.0124 0.27502752,0.27502752 0 0 0 -0.0031,-0.002 0.27502752,0.27502752 0 0 0 -0.00207,-0.001 0.27502752,0.27502752 0 0 0 -0.1271241,-0.031 z"
       id="path4559"
       inkscape:connector-curvature="0" />
  </g>
</svg>
